<svg id="Слой_1" data-name="Слой 1" xmlns="http://www.w3.org/2000/svg" viewBox="0 0 234.39 84.93"><defs><style>.cls-1{fill:#0072bb;}.cls-2{fill:#fbb92c;}</style></defs><title>logo</title><path class="cls-1" d="M0,20.61H17.22v3.12H0ZM0,48.18v-22H6v8.28h9.83V37.3H6V48.18Zm17.13,2.41v3.12H0V50.59Z"/><path class="cls-1" d="M34.08,20.61h3.7c4.69,0,8.47,2,8.47,4.44v6.29c0,1.61-1.62,3.78-5.14,4.54,3.52.66,5.14,2.51,5.14,4.11v9.27c0,2.46-3.79,4.45-8.47,4.45H23.53V50.59H37.77c1.44,0,2.52-.57,2.52-1.32V39.85c0-1.7-1.62-2.55-4.6-2.55H29.48V48.18H23.53V20.61h5.95V34.41H35.7c3.52,0,4.6-1.42,4.6-3.22V25.05c0-.71-1.08-1.32-2.52-1.32h-3.7Z"/><path class="cls-1" d="M64,37.3h2.25c1.8,0,2.88-.85,2.88-1.7V25.05c0-.71-1.17-1.32-2.52-1.32H53.46V20.61H66.62c4.6,0,8.47,2,8.47,4.44V35.83c0,2.41-3.15,4.4-7.93,4.4H64Zm-4.6,16.41H53.46V26.14h5.95Z"/><path class="cls-1" d="M157.31,37.3h2.25c1.8,0,2.88-.85,2.88-1.7V25.05c0-.71-1.17-1.32-2.52-1.32H146.76V20.61h13.16c4.6,0,8.47,2,8.47,4.44V35.83c0,2.41-3.15,4.4-7.93,4.4h-3.16Zm-4.6,16.41h-5.95V26.14h5.95Z"/><path class="cls-1" d="M175.16,20.61h17.22v3.12H175.16Zm0,27.57v-22h5.95v8.28h9.83V37.3h-9.83V48.18Zm17.13,2.41v3.12H175.16V50.59Z"/><path class="cls-1" d="M202,23.73h-3.34V20.61H207l9.47,26.15,9.65-26.15h8.29v3.12h-3.33l-11.27,30H213.2Zm-2.52,2.88h-.81v27.1h6V42.55Zm34.08,0h.81v27.1h-5.95V42.36Z"/><path class="cls-2" d="M120.42,46.1c2.6-1.37,4.86-1.77,7.75-5.51a18.26,18.26,0,0,0,3-4.69c1.19-3.08,2.83-13.63-9.7-20-.82-.61-.84-.93-.8-1.07s.26-.24.73-.5a6.64,6.64,0,0,0,1-.68A21.65,21.65,0,0,1,124,12.1a1.26,1.26,0,0,1,1.25-.08,10.1,10.1,0,0,1,2.3,1.8,15.3,15.3,0,0,0,2.21,1.71,19.3,19.3,0,0,1,4.8,6,20.47,20.47,0,0,1,2.21,7.66,22.2,22.2,0,0,1-1.26,10.24c-3.68,9.54-13.53,13-14.69,13.29-8.5,2-16.7,1.24-23.73-4.59-1-.8-1.63-1.54-.09-2.42.28-.16.63-.45.41-.81s-.63-.15-1-.1c-2.33.35-2.32.35-3-2a14.78,14.78,0,0,0-2.75-5.92,2.84,2.84,0,0,0-2.75-1c-2.32.28-3.28-.42-3.7-2.6a1.79,1.79,0,0,1,.55-1.82,47.33,47.33,0,0,1,9.86-7.27,1.82,1.82,0,0,1,2.38.34c.85.73.06,1.24-.23,1.75a27.37,27.37,0,0,1-3,5,3.52,3.52,0,0,0,.29,4.85c2.37,2.45,4.39,5.24,7.12,7.36C104.64,46,113.39,50.15,120.42,46.1Zm14.37-9.91c-.12.07-.19.09-.2.12-.25.52-.51,1-.75,1.58A22.89,22.89,0,0,1,124,48.76c-.56.32-1.11.65-1.68,1-.29.15-.56.36-.41.67.27.55.61.06.83-.06,4.67-2.62,8.59-6,10.95-10.82A8,8,0,0,0,134.79,36.19Zm.54-2.23c.82-.32,1.24-.65,1.2-1.24a1.1,1.1,0,0,0-.73-.83c-.16-.07-.33-.17-.46,0s-.12.42,0,.48C136.16,32.76,135.73,33.26,135.33,34ZM97.42,42.3a.7.7,0,0,0-.77-.68.64.64,0,0,0-.67.61.65.65,0,0,0,.67.75A.7.7,0,0,0,97.42,42.3Z"/><path class="cls-2" d="M110.49,24.37c-1.25-1-1.59-1.83-1.23-2.94a13.23,13.23,0,0,0,.68-3,12,12,0,0,1,5.25-9.08,6.84,6.84,0,0,0,1.31-1.27,4.71,4.71,0,0,1,4.7-1.86,3.21,3.21,0,0,0,3.3-2.38c.37-2.15,2.21-2.73,3.71-3.72a.52.52,0,0,1,.7.11,11.85,11.85,0,0,1,3.62,5.3c.07.22.11.49-.09.59-1.32.7-2.29,2.09-4,2a4.49,4.49,0,0,0-3.46.88c-.3.26-.67.45-.76.86-.57,2.44-2.92,3.18-4.6,4.55-.6.49-1.29.09-1.91,0a2.42,2.42,0,0,0-2,.48,9.67,9.67,0,0,0-3.86,5.66C111.37,21.67,111,22.9,110.49,24.37ZM128.73,5.82c.41.2.26,1.6,1.41.85.63-.4,2-.64,1.31-1.78-.4-.63-.4-2.15-1.82-1.67S128.1,4.49,128.73,5.82Zm-1.95-2a7,7,0,0,0,2.67-2.11A3.81,3.81,0,0,0,126.78,3.84Zm-2.1,1.49c.1,1.39.51,1.92,1.7,2.09A6,6,0,0,1,124.69,5.33Z"/><path class="cls-2" d="M87.63,14.87c-.18,1.25-.3,2.11-.43,3a7.48,7.48,0,0,0-.13,2.75,58.83,58.83,0,0,1,1.62-6,2.83,2.83,0,0,1,1-1.41A57,57,0,0,1,98.21,7.9c.29-.15.63-.6,1-.16s0,.73-.15,1.07A27.5,27.5,0,0,0,95.64,20.9a1.26,1.26,0,0,1-.82,1.22,42.71,42.71,0,0,0-10.06,6.7c-.23.2-.41.64-.83.42s-.17-.52-.19-.8A35,35,0,0,1,84.61,18C84.95,16.63,86.37,16.05,87.63,14.87Z"/><path class="cls-2" d="M100.14,9.6c.22,1.2-.58,1.82-.55,2.7.42-.18.45-.58.66-.85s.27-.94.94-.46c.45.32.87.49.47,1.22a32.34,32.34,0,0,0-3.41,8.94c-.07.33-.13.74-.64.54s-1.18-.49-1.09-1.33A24.46,24.46,0,0,1,98,13.56,19.92,19.92,0,0,1,100.14,9.6Z"/><path d="M43.8,68.06H59.43v2.17H47.15v4.22h8c2.68,0,5.36,0,5.36,3.45v3.58c0,3.45-2.68,3.45-5.36,3.45H43.8Zm12.05,14.7c.67,0,1.34,0,1.34-.89V77.51c0-.89-.67-.89-1.34-.89H47.15v6.13Z"/><path d="M74.83,68.06h4.24l7.37,16.87H83.09l-2.34-5.37H73.15l-2.34,5.37H67.46Zm5,9.46-2.9-6.65L74,77.51Z"/><path d="M92.68,82.75C93.8,82.5,96,82,96,77.9V68.06h14.51V84.93h-3.35V70.23H99.38V77.9c0,6.26-4.46,6.77-6.7,7Z"/><path d="M118.57,68.06h3.35V77l7.81-8.95h4L126.83,76l7.81,8.95h-4l-5.8-6.65-2.9,3.32v3.32h-3.35Z"/><path d="M141.56,71.51c0-3.45,2.68-3.45,5.36-3.45h6c2.68,0,5.36,0,5.36,3.45v10c0,3.45-2.68,3.45-5.36,3.45h-6c-2.68,0-5.36,0-5.36-3.45Zm4.69,11.25h7.37c.67,0,1.34,0,1.34-.89V71.12c0-.89-.67-.89-1.34-.89h-7.37c-.67,0-1.34,0-1.34.89V81.86C144.91,82.75,145.58,82.75,146.25,82.75Z"/><path d="M166.33,68.06h3.35v6.39h10V68.06h3.35V84.93h-3.35V76.62h-10v8.31h-3.35Z"/></svg>