<svg xmlns="http://www.w3.org/2000/svg" xmlns:xlink="http://www.w3.org/1999/xlink" width="128" height="127" viewBox="0 0 128 127"><defs><path id="xweia" d="M3831.5 2497a62.5 62.5 0 1 1 0 125 62.5 62.5 0 0 1 0-125z"/><path id="xweic" d="M3825.8 2555.1l4.07 4.01 7.31-7.22a3.48 3.48 0 0 1 4.88 0 3.38 3.38 0 0 1 0 4.82l-9.75 9.62a3.48 3.48 0 0 1-4.88 0l-6.51-6.41a3.38 3.38 0 0 1 0-4.82 3.49 3.49 0 0 1 4.88 0z"/><clipPath id="xweib"><use fill="#fff" xlink:href="#xweia"/></clipPath></defs><g><g transform="translate(-3767 -2496)"><use fill="#fff" fill-opacity="0" stroke="#cee480" stroke-miterlimit="50" stroke-width="4" clip-path="url(&quot;#xweib&quot;)" xlink:href="#xweia"/></g><g transform="translate(-3767 -2496)"><use fill="#cee480" xlink:href="#xweic"/></g></g></svg>